<svg width="19" height="14" viewBox="0 0 19 14" fill="none" xmlns="http://www.w3.org/2000/svg">
<path d="M10.8333 7.49998C10.1389 7.49998 9.54861 7.25692 9.0625 6.77081C8.57639 6.2847 8.33333 5.69442 8.33333 4.99998C8.33333 4.30554 8.57639 3.71526 9.0625 3.22915C9.54861 2.74304 10.1389 2.49998 10.8333 2.49998C11.5278 2.49998 12.1181 2.74304 12.6042 3.22915C13.0903 3.71526 13.3333 4.30554 13.3333 4.99998C13.3333 5.69442 13.0903 6.2847 12.6042 6.77081C12.1181 7.25692 11.5278 7.49998 10.8333 7.49998ZM5 9.99998C4.54167 9.99998 4.14931 9.83679 3.82292 9.5104C3.49653 9.18401 3.33333 8.79165 3.33333 8.33331V1.66665C3.33333 1.20831 3.49653 0.815951 3.82292 0.489563C4.14931 0.163174 4.54167 -2.09808e-05 5 -2.09808e-05H16.6667C17.125 -2.09808e-05 17.5174 0.163174 17.8438 0.489563C18.1701 0.815951 18.3333 1.20831 18.3333 1.66665V8.33331C18.3333 8.79165 18.1701 9.18401 17.8438 9.5104C17.5174 9.83679 17.125 9.99998 16.6667 9.99998H5ZM6.66667 8.33331H15C15 7.87498 15.1632 7.48262 15.4896 7.15623C15.816 6.82984 16.2083 6.66665 16.6667 6.66665V3.33331C16.2083 3.33331 15.816 3.17012 15.4896 2.84373C15.1632 2.51734 15 2.12498 15 1.66665H6.66667C6.66667 2.12498 6.50347 2.51734 6.17708 2.84373C5.85069 3.17012 5.45833 3.33331 5 3.33331V6.66665C5.45833 6.66665 5.85069 6.82984 6.17708 7.15623C6.50347 7.48262 6.66667 7.87498 6.66667 8.33331ZM15.8333 13.3333H1.66667C1.20833 13.3333 0.815972 13.1701 0.489583 12.8437C0.163194 12.5173 0 12.125 0 11.6666V2.49998H1.66667V11.6666H15.8333V13.3333Z" fill="#0D7FF2"/>
</svg>
