<svg width="15" height="17" viewBox="0 0 15 17" fill="none" xmlns="http://www.w3.org/2000/svg">
<path d="M1.66667 16.6667C1.20833 16.6667 0.815972 16.5035 0.489583 16.1771C0.163194 15.8507 0 15.4583 0 15V3.33332C0 2.87499 0.163194 2.48263 0.489583 2.15624C0.815972 1.82985 1.20833 1.66665 1.66667 1.66665H2.5V-1.14441e-05H4.16667V1.66665H10.8333V-1.14441e-05H12.5V1.66665H13.3333C13.7917 1.66665 14.184 1.82985 14.5104 2.15624C14.8368 2.48263 15 2.87499 15 3.33332V15C15 15.4583 14.8368 15.8507 14.5104 16.1771C14.184 16.5035 13.7917 16.6667 13.3333 16.6667H1.66667ZM1.66667 15H13.3333V6.66666H1.66667V15ZM1.66667 4.99999H13.3333V3.33332H1.66667V4.99999ZM7.5 9.99999C7.26389 9.99999 7.06597 9.92013 6.90625 9.76041C6.74653 9.60068 6.66667 9.40277 6.66667 9.16666C6.66667 8.93054 6.74653 8.73263 6.90625 8.57291C7.06597 8.41318 7.26389 8.33332 7.5 8.33332C7.73611 8.33332 7.93403 8.41318 8.09375 8.57291C8.25347 8.73263 8.33333 8.93054 8.33333 9.16666C8.33333 9.40277 8.25347 9.60068 8.09375 9.76041C7.93403 9.92013 7.73611 9.99999 7.5 9.99999ZM4.16667 9.99999C4.16667 9.99999 4.10764 9.99999 3.98958 9.99999C3.87153 9.99999 3.73264 9.92013 3.57292 9.76041C3.41319 9.60068 3.33333 9.40277 3.33333 9.16666C3.33333 8.93054 3.41319 8.73263 3.57292 8.57291C3.73264 8.41318 3.93056 8.33332 4.16667 8.33332C4.40278 8.33332 4.60069 8.41318 4.76042 8.57291C4.92014 8.73263 5 8.93054 5 9.16666C5 9.40277 4.92014 9.60068 4.76042 9.76041C4.60069 9.92013 4.40278 9.99999 4.16667 9.99999ZM10.8333 9.99999C10.5972 9.99999 10.3993 9.92013 10.2396 9.76041C10.0799 9.60068 10 9.40277 10 9.16666C10 8.93054 10.0799 8.73263 10.2396 8.57291C10.3993 8.41318 10.5972 8.33332 10.8333 8.33332C11.0694 8.33332 11.2674 8.41318 11.4271 8.57291C11.5868 8.73263 11.6667 8.93054 11.6667 9.16666C11.6667 9.40277 11.5868 9.60068 11.4271 9.76041C11.2674 9.92013 11.0694 9.99999 10.8333 9.99999ZM7.5 13.3333C7.26389 13.3333 7.06597 13.2535 6.90625 13.0937C6.74653 12.934 6.66667 12.7361 6.66667 12.5C6.66667 12.2639 6.74653 12.066 6.90625 11.9062C7.06597 11.7465 7.26389 11.6667 7.5 11.6667C7.73611 11.6667 7.93403 11.7465 8.09375 11.9062C8.25347 12.066 8.33333 12.2639 8.33333 12.5C8.33333 12.7361 8.25347 12.934 8.09375 13.0937C7.93403 13.2535 7.73611 13.3333 7.5 13.3333ZM4.16667 13.3333C4.16667 13.3333 4.10764 13.3333 3.98958 13.3333C3.87153 13.3333 3.73264 13.2535 3.57292 13.0937C3.41319 12.934 3.33333 12.7361 3.33333 12.5C3.33333 12.2639 3.41319 12.066 3.57292 11.9062C3.73264 11.7465 3.93056 11.6667 4.16667 11.6667C4.40278 11.6667 4.60069 11.7465 4.76042 11.9062C4.92014 12.066 5 12.2639 5 12.5C5 12.7361 4.92014 12.934 4.76042 13.0937C4.60069 13.2535 4.40278 13.3333 4.16667 13.3333ZM10.8333 13.3333C10.5972 13.3333 10.3993 13.2535 10.2396 13.0937C10.0799 12.934 10 12.7361 10 12.5C10 12.2639 10.0799 12.066 10.2396 11.9062C10.3993 11.7465 10.5972 11.6667 10.8333 11.6667C11.0694 11.6667 11.2674 11.7465 11.4271 11.9062C11.5868 12.066 11.6667 12.2639 11.6667 12.5C11.6667 12.7361 11.5868 12.934 11.4271 13.0937C11.2674 13.2535 11.0694 13.3333 10.8333 13.3333Z" fill="#0D7FF2"/>
</svg>
