<svg width="16" height="17" viewBox="0 0 16 17" fill="none" xmlns="http://www.w3.org/2000/svg">
<path d="M2.91667 7.49996L7.5 -4.19617e-05L12.0833 7.49996H2.91667ZM12.0833 16.6666C11.0417 16.6666 10.1562 16.302 9.42708 15.5729C8.69792 14.8437 8.33333 13.9583 8.33333 12.9166C8.33333 11.875 8.69792 10.9895 9.42708 10.2604C10.1562 9.53121 11.0417 9.16663 12.0833 9.16663C13.125 9.16663 14.0104 9.53121 14.7396 10.2604C15.4688 10.9895 15.8333 11.875 15.8333 12.9166C15.8333 13.9583 15.4688 14.8437 14.7396 15.5729C14.0104 16.302 13.125 16.6666 12.0833 16.6666ZM0 16.25V9.58329H6.66667V16.25H0ZM12.0833 15C12.6667 15 13.1597 14.7986 13.5625 14.3958C13.9653 13.993 14.1667 13.5 14.1667 12.9166C14.1667 12.3333 13.9653 11.8402 13.5625 11.4375C13.1597 11.0347 12.6667 10.8333 12.0833 10.8333C11.5 10.8333 11.0069 11.0347 10.6042 11.4375C10.2014 11.8402 10 12.3333 10 12.9166C10 13.5 10.2014 13.993 10.6042 14.3958C11.0069 14.7986 11.5 15 12.0833 15ZM1.66667 14.5833H5V11.25H1.66667V14.5833ZM5.875 5.83329H9.125L7.5 3.20829L5.875 5.83329Z" fill="#0D7FF2"/>
</svg>
