<svg width="15" height="14" viewBox="0 0 15 14" fill="none" xmlns="http://www.w3.org/2000/svg">
<path d="M7.5 13.7625L6.4125 12.7875C5.15 11.65 4.10625 10.6688 3.28125 9.84376C2.45625 9.01876 1.8 8.27814 1.3125 7.62189C0.825 6.96564 0.484375 6.36251 0.290625 5.81251C0.096875 5.26251 0 4.70001 0 4.12501C0 2.95001 0.39375 1.96876 1.18125 1.18126C1.96875 0.393762 2.95 1.14441e-05 4.125 1.14441e-05C4.775 1.14441e-05 5.39375 0.137511 5.98125 0.412512C6.56875 0.687511 7.075 1.07501 7.5 1.57501C7.925 1.07501 8.43125 0.687511 9.01875 0.412512C9.60625 0.137511 10.225 1.14441e-05 10.875 1.14441e-05C12.05 1.14441e-05 13.0313 0.393762 13.8188 1.18126C14.6063 1.96876 15 2.95001 15 4.12501C15 4.70001 14.9031 5.26251 14.7094 5.81251C14.5156 6.36251 14.175 6.96564 13.6875 7.62189C13.2 8.27814 12.5438 9.01876 11.7188 9.84376C10.8938 10.6688 9.85 11.65 8.5875 12.7875L7.5 13.7625ZM7.5 11.7375C8.7 10.6625 9.6875 9.74064 10.4625 8.97189C11.2375 8.20314 11.85 7.53439 12.3 6.96564C12.75 6.39689 13.0625 5.89064 13.2375 5.44689C13.4125 5.00314 13.5 4.56251 13.5 4.12501C13.5 3.37501 13.25 2.75001 12.75 2.25001C12.25 1.75001 11.625 1.50001 10.875 1.50001C10.2875 1.50001 9.74375 1.66564 9.24375 1.99689C8.74375 2.32814 8.4 2.75001 8.2125 3.26251H6.7875C6.6 2.75001 6.25625 2.32814 5.75625 1.99689C5.25625 1.66564 4.7125 1.50001 4.125 1.50001C3.375 1.50001 2.75 1.75001 2.25 2.25001C1.75 2.75001 1.5 3.37501 1.5 4.12501C1.5 4.56251 1.5875 5.00314 1.7625 5.44689C1.9375 5.89064 2.25 6.39689 2.7 6.96564C3.15 7.53439 3.7625 8.20314 4.5375 8.97189C5.3125 9.74064 6.3 10.6625 7.5 11.7375Z" fill="#0D7FF2"/>
</svg>
