<svg width="16" height="20" viewBox="0 0 16 20" fill="none" xmlns="http://www.w3.org/2000/svg">
<path d="M7.77778 9.72224C7.77778 9.72224 7.91146 9.72224 8.17882 9.72224C8.44618 9.72224 8.77026 9.53184 9.15104 9.15106C9.53183 8.77027 9.72222 8.31251 9.72222 7.77779C9.72222 7.24307 9.53183 6.78531 9.15104 6.40453C8.77026 6.02374 8.3125 5.83335 7.77778 5.83335C7.24306 5.83335 6.7853 6.02374 6.40451 6.40453C6.02373 6.78531 5.83333 7.24307 5.83333 7.77779C5.83333 8.31251 6.02373 8.77027 6.40451 9.15106C6.7853 9.53184 7.24306 9.72224 7.77778 9.72224ZM7.77778 16.8681C9.75463 15.0533 11.2211 13.4045 12.1771 11.9219C13.1331 10.4392 13.6111 9.1227 13.6111 7.97224C13.6111 6.20603 13.048 4.75985 11.9219 3.63369C10.7957 2.50754 9.41435 1.94446 7.77778 1.94446C6.1412 1.94446 4.75984 2.50754 3.63368 3.63369C2.50752 4.75985 1.94444 6.20603 1.94444 7.97224C1.94444 9.1227 2.42245 10.4392 3.37847 11.9219C4.33449 13.4045 5.80093 15.0533 7.77778 16.8681ZM7.77778 19.4445C5.16898 17.2246 3.22049 15.1626 1.93229 13.2587C0.644097 11.3548 0 9.59261 0 7.97224C0 5.54168 0.781829 3.60534 2.34549 2.16321C3.90914 0.721079 5.71991 1.33514e-05 7.77778 1.33514e-05C9.83565 1.33514e-05 11.6464 0.721079 13.2101 2.16321C14.7737 3.60534 15.5556 5.54168 15.5556 7.97224C15.5556 9.59261 14.9115 11.3548 13.6233 13.2587C12.3351 15.1626 10.3866 17.2246 7.77778 19.4445Z" fill="#60758A"/>
</svg>
