<svg width="18" height="18" viewBox="0 0 18 18" fill="none" xmlns="http://www.w3.org/2000/svg">
<path d="M16.1322 17.4927L10.0097 11.3702C9.52381 11.759 8.96502 12.0667 8.33333 12.2935C7.70165 12.5202 7.02948 12.6336 6.31681 12.6336C4.55135 12.6336 3.05718 12.0222 1.83431 10.7993C0.611435 9.57641 0 8.08224 0 6.31678C0 4.55131 0.611435 3.05714 1.83431 1.83427C3.05718 0.611397 4.55135 -3.8147e-05 6.31681 -3.8147e-05C8.08228 -3.8147e-05 9.57645 0.611397 10.7993 1.83427C12.0222 3.05714 12.6336 4.55131 12.6336 6.31678C12.6336 7.02944 12.5202 7.70162 12.2935 8.3333C12.0667 8.96498 11.759 9.52377 11.3703 10.0097L17.4927 16.1321L16.1322 17.4927ZM6.31681 10.69C7.53159 10.69 8.56414 10.2648 9.41448 9.41444C10.2648 8.5641 10.69 7.53155 10.69 6.31678C10.69 5.102 10.2648 4.06945 9.41448 3.21911C8.56414 2.36877 7.53159 1.9436 6.31681 1.9436C5.10204 1.9436 4.06949 2.36877 3.21915 3.21911C2.3688 4.06945 1.94363 5.102 1.94363 6.31678C1.94363 7.53155 2.3688 8.5641 3.21915 9.41444C4.06949 10.2648 5.10204 10.69 6.31681 10.69Z" fill="#60758A"/>
</svg>
