<?xml version="1.0" encoding="UTF-8"?>
<svg version="1.1" xmlns="http://www.w3.org/2000/svg" width="95" height="114">
<path d="M0 0 C7.15551437 6.82961965 12.36184678 15.4552193 13.3359375 25.4453125 C13.54418096 45.06184604 4.14187143 61.11710645 -8 76 C-8.65871094 76.82371094 -9.31742188 77.64742188 -9.99609375 78.49609375 C-14.47925622 83.84521919 -19.603441 89.01563479 -26 92 C-34.22332718 91.56919395 -41.2694348 83.2049122 -46.6796875 77.625 C-60.70242013 61.76089844 -70.4960926 43.71492124 -69.22949219 22.17822266 C-68.19897449 12.39707491 -62.41007512 4.16441594 -55 -2 C-36.89899911 -13.39770967 -17.05502598 -13.99221413 0 0 Z M-49 15 C-49 15.66 -49 16.32 -49 17 C-44.77317729 19.00733279 -41.02509532 19.37736179 -36.375 19.625 C-35.06273437 19.69976562 -33.75046875 19.77453125 -32.3984375 19.8515625 C-28.1415113 20.26286807 -28.1415113 20.26286807 -24.265625 18.9765625 C-20.98067384 17.56063528 -18.28211939 18.04795191 -14.75 18.375 C-13.48671875 18.48585938 -12.2234375 18.59671875 -10.921875 18.7109375 C-9.95765625 18.80632813 -8.9934375 18.90171875 -8 19 C-7.67 17.68 -7.34 16.36 -7 15 C-13.44740113 8.58773457 -19.30547921 5.07419507 -28.5 4.5625 C-36.48121118 4.88230463 -43.74130942 9.08185947 -49 15 Z M-37 28 C-36 30 -36 30 -36 30 Z M-37 31 C-36 33 -36 33 -36 33 Z M-43 36 C-43 36.66 -43 37.32 -43 38 C-42.34 37.67 -41.68 37.34 -41 37 C-41.66 36.67 -42.32 36.34 -43 36 Z M-17 36 C-16.67 36.99 -16.34 37.98 -16 39 C-16 38.01 -16 37.02 -16 36 C-16.33 36 -16.66 36 -17 36 Z M-53 39 C-50.07239259 49.23919545 -41.31815128 58.16763654 -32.875 64.5 C-30.18829083 66.15494634 -30.18829083 66.15494634 -27.625 66.125 C-17.33694495 61.71583355 -8.56633652 52.07171804 -4 42 C-4.495 41.01 -4.495 41.01 -5 40 C-5.763125 40.350625 -6.52625 40.70125 -7.3125 41.0625 C-10 42 -10 42 -13 41 C-13 42.65 -13 44.3 -13 46 C-13.99 46.33 -14.98 46.66 -16 47 C-16.33 47.99 -16.66 48.98 -17 50 C-17.99 50.33 -18.98 50.66 -20 51 C-20.33 51.66 -20.66 52.32 -21 53 C-22.33333333 53.33333333 -23.66666667 53.66666667 -25 54 C-25.33 54.66 -25.66 55.32 -26 56 C-27.65 56 -29.3 56 -31 56 C-31.33 55.34 -31.66 54.68 -32 54 C-33.65 54 -35.3 54 -37 54 C-37.33 53.01 -37.66 52.02 -38 51 C-38.5775 50.731875 -39.155 50.46375 -39.75 50.1875 C-42.10508403 48.94453898 -42.95882652 47.94378724 -44.5625 45.875 C-45.366875 44.92625 -46.17125 43.9775 -47 43 C-47.99 43 -48.98 43 -50 43 C-50 41.68 -50 40.36 -50 39 C-50.99 39 -51.98 39 -53 39 Z M-34 43 C-33 45 -33 45 -33 45 Z M-29 47 C-28 51 -28 51 -28 51 Z " fill="#3DA5DD" transform="translate(76,13)"/>
<path d="M0 0 C2.49361571 1.20381448 4.68143083 2.45428722 7 4 C7 4.66 7 5.32 7 6 C11.44870215 6.39253254 14.14243493 5.15305957 18 3 C20.15581776 8.12006719 21.47795098 13.54896902 20 19 C17.84140065 21.09460925 15.56692834 22.62209606 13.0546875 24.26953125 C10.84988212 25.81407958 10.84988212 25.81407958 10.3203125 28.13671875 C10.20105582 30.09042371 10.09939742 32.04518405 10 34 C7.9375 35.5 7.9375 35.5 6 36 C6.33 34.35 6.66 32.7 7 31 C5.824375 31.495 5.824375 31.495 4.625 32 C2 33 2 33 0 33 C-0.33 34.32 -0.66 35.64 -1 37 C-3.25 37.6875 -3.25 37.6875 -6 38 C-8.3125 36.6875 -8.3125 36.6875 -10 35 C-10 34.34 -10 33.68 -10 33 C-10.66 33 -11.32 33 -12 33 C-11.505 33.78375 -11.01 34.5675 -10.5 35.375 C-9 38 -9 38 -9 40 C-15.11241033 38.64926647 -21.02695483 35.96630647 -25 31 C-25 30.34 -25 29.68 -25 29 C-26.11375 28.566875 -26.11375 28.566875 -27.25 28.125 C-30 27 -30 27 -31.9375 25.75 C-34.12852935 24.68795476 -34.12852935 24.68795476 -36.734375 26.16015625 C-40 27 -40 27 -43.17578125 25.69921875 C-44.72845703 24.70341797 -44.72845703 24.70341797 -46.3125 23.6875 C-47.36050781 23.03136719 -48.40851562 22.37523438 -49.48828125 21.69921875 C-52 20 -52 20 -53 19 C-53.12601135 17.2534241 -53.17579494 15.5010766 -53.1875 13.75 C-53.20167969 12.79609375 -53.21585938 11.8421875 -53.23046875 10.859375 C-53 8 -53 8 -51 3 C-47.37 4.32 -43.74 5.64 -40 7 C-39.01 5.68 -38.02 4.36 -37 3 C-36.34 3.33 -35.68 3.66 -35 4 C-35.99 5.485 -35.99 5.485 -37 7 C-32.79865784 7.9651732 -28.67372044 8.29541974 -24.375 8.5625 C-23.06273438 8.64628906 -21.75046875 8.73007812 -20.3984375 8.81640625 C-16.14270989 9.26434948 -16.14270989 9.26434948 -12.265625 7.9765625 C-8.98067384 6.56063528 -6.28211939 7.04795191 -2.75 7.375 C-1.48671875 7.48585938 -0.2234375 7.59671875 1.078125 7.7109375 C2.04234375 7.80632813 3.0065625 7.90171875 4 8 C3.27633685 4.65569263 2.18284504 2.65737657 0 0 Z M-25 18 C-24 20 -24 20 -24 20 Z M-25 21 C-24 23 -24 23 -24 23 Z M-5 26 C-4.67 26.99 -4.34 27.98 -4 29 C-4 28.01 -4 27.02 -4 26 C-4.33 26 -4.66 26 -5 26 Z " fill="#46ABDB" transform="translate(64,23)"/>
<path d="M0 0 C1.12019531 0.42152344 2.24039062 0.84304687 3.39453125 1.27734375 C4.86717658 1.83075824 6.33983343 2.38414205 7.8125 2.9375 C8.55048828 3.21529297 9.28847656 3.49308594 10.04882812 3.77929688 C11.11713867 4.18051758 11.11713867 4.18051758 12.20703125 4.58984375 C12.8616333 4.83597412 13.51623535 5.08210449 14.19067383 5.33569336 C17.94914073 6.71564053 21.19844993 7.26224892 25.1875 7.5625 C26.81751953 7.68818359 26.81751953 7.68818359 28.48046875 7.81640625 C29.72763672 7.90728516 29.72763672 7.90728516 31 8 C29.6875 10.9375 29.6875 10.9375 28 14 C27.01 14.33 26.02 14.66 25 15 C25.99 16.98 26.98 18.96 28 21 C31.41340325 21.08325374 34.01589047 20.99520288 37.3125 20 C42.48154042 20 44.4724881 22.34609931 48.1796875 25.7265625 C50.17449493 28.21793143 50.65873507 29.86256436 51 33 C48.25 34.1875 48.25 34.1875 45 35 C42.625 33.75 42.625 33.75 41 32 C41 31.34 41 30.68 41 30 C40.34 30 39.68 30 39 30 C39.495 30.78375 39.99 31.5675 40.5 32.375 C42 35 42 35 42 37 C35.88758967 35.64926647 29.97304517 32.96630647 26 28 C26 27.34 26 26.68 26 26 C24.88625 25.566875 24.88625 25.566875 23.75 25.125 C21 24 21 24 19.0625 22.75 C16.87147065 21.68795476 16.87147065 21.68795476 14.265625 23.16015625 C11 24 11 24 7.82421875 22.69921875 C6.27154297 21.70341797 6.27154297 21.70341797 4.6875 20.6875 C3.63949219 20.03136719 2.59148438 19.37523438 1.51171875 18.69921875 C-1 17 -1 17 -2 16 C-2.12601135 14.2534241 -2.17579494 12.5010766 -2.1875 10.75 C-2.20167969 9.79609375 -2.21585938 8.8421875 -2.23046875 7.859375 C-1.9897641 4.87300541 -1.249438 2.70629259 0 0 Z " fill="#77CAF2" transform="translate(13,26)"/>
<path d="M0 0 C2.74011314 5.48022628 4.49527539 9.76657071 3 16 C0.89646802 18.2519667 -1.2350249 19.78657128 -3.8359375 21.4296875 C-6.15768816 23.11442354 -6.96182831 24.36464109 -8 27 C-8.33 26.34 -8.66 25.68 -9 25 C-9.99 25.66 -10.98 26.32 -12 27 C-15.15638667 26.89478711 -16.25871838 25.77738186 -18.6875 23.6875 C-20.83949573 21.18653199 -21.56575888 20.14824811 -22 17 C-22.33 16.34 -22.66 15.68 -23 15 C-22.67 14.01 -22.34 13.02 -22 12 C-22.66 11.67 -23.32 11.34 -24 11 C-21.31146575 9.85940971 -18.79411369 8.95378062 -15.9375 8.3125 C-10.13249706 6.75159921 -5.0745777 3.11640732 0 0 Z " fill="#5FBCEB" transform="translate(81,26)"/>
<path d="M0 0 C2.421875 1.57421875 2.421875 1.57421875 4.75 3.6875 C5.52859375 4.37199219 6.3071875 5.05648437 7.109375 5.76171875 C9.19977596 8.23651162 9.66561206 9.8177414 10 13 C7.25 14.1875 7.25 14.1875 4 15 C1.625 13.75 1.625 13.75 0 12 C0 11.34 0 10.68 0 10 C-0.66 10 -1.32 10 -2 10 C-1.505 10.78375 -1.01 11.5675 -0.5 12.375 C1 15 1 15 1 17 C-5.11241033 15.64926647 -11.02695483 12.96630647 -15 8 C-15 7.34 -15 6.68 -15 6 C-16.2065625 5.566875 -16.2065625 5.566875 -17.4375 5.125 C-20 4 -20 4 -21 2 C-20.4225 2.20625 -19.845 2.4125 -19.25 2.625 C-16.99540491 3.22745702 -16.99540491 3.22745702 -15.125 2.0625 C-12.33980794 0.66990397 -10.07697771 0.93310918 -7 1 C-4.40492755 -0.29753622 -2.88635793 -0.31648661 0 0 Z " fill="#75CAF1" transform="translate(54,46)"/>
<path d="M0 0 C11.21285144 3.02190322 20.18967006 9.00282648 26.25 19.078125 C31.65728511 29.49510072 32.92195927 40.56881067 29.5 51.9375 C29.02165118 53.2994654 28.53066164 54.65755239 28 56 C27.67 56 27.34 56 27 56 C27.16371094 54.88625 27.32742187 53.7725 27.49609375 52.625 C28.10669314 47.74020485 28.11158497 42.91604855 28.0625 38 C28.05798828 37.12988281 28.05347656 36.25976562 28.04882812 35.36328125 C28.0371736 33.24215707 28.01924357 31.1210689 28 29 C27.03320312 28.57074219 27.03320312 28.57074219 26.046875 28.1328125 C24 27 24 27 23.25 24.875 C23.1675 24.25625 23.085 23.6375 23 23 C21.35 23.33 19.7 23.66 18 24 C17.34 21.69 16.68 19.38 16 17 C15.67 17 15.34 17 15 17 C15 14 15 11 15 8 C14.360625 7.7525 13.72125 7.505 13.0625 7.25 C10.4501115 6.18371898 7.84449322 5.10896999 5.25 4 C4.47140625 3.67 3.6928125 3.34 2.890625 3 C1 2 1 2 0 0 Z " fill="#44A2D2" transform="translate(58,4)"/>
<path d="M0 0 C2.53816868 2.26259608 3.80410385 4.37977286 5.125 7.5 C5.45757812 8.2734375 5.79015625 9.046875 6.1328125 9.84375 C9.96837154 19.38081571 8.71819519 30.59385145 5 40 C4.67 40 4.34 40 4 40 C4.16371094 38.88625 4.32742187 37.7725 4.49609375 36.625 C5.10669314 31.74020485 5.11158497 26.91604855 5.0625 22 C5.05798828 21.12988281 5.05347656 20.25976562 5.04882812 19.36328125 C5.0371736 17.24215707 5.01924357 15.1210689 5 13 C4.03126953 12.566875 4.03126953 12.566875 3.04296875 12.125 C1 11 1 11 0.3125 9 C0.1578125 8.01 0.1578125 8.01 0 7 C-0.33 6.34 -0.66 5.68 -1 5 C-0.72057545 3.32345271 -0.39171753 1.65391846 0 0 Z " fill="#50A1CB" transform="translate(81,20)"/>
<path d="M0 0 C0.33 0.66 0.66 1.32 1 2 C0.67 2.99 0.34 3.98 0 5 C0.99 5.33 1.98 5.66 3 6 C2.01 6.33 1.02 6.66 0 7 C-0.66 11.95 -1.32 16.9 -2 22 C-2.33 22 -2.66 22 -3 22 C-3.66 24.97 -4.32 27.94 -5 31 C-5.33 31 -5.66 31 -6 31 C-6.55113515 19.97729708 -6.64721271 10.90576656 -1 1 C-0.67 0.67 -0.34 0.34 0 0 Z " fill="#51A7D2" transform="translate(13,20)"/>
<path d="M0 0 C0.66 0.99 1.32 1.98 2 3 C2.33 2.01 2.66 1.02 3 0 C4.32 0.66 5.64 1.32 7 2 C6.690625 2.7425 6.38125 3.485 6.0625 4.25 C5.1905075 6.50692176 4.52332993 8.6450153 4 11 C1.69 11 -0.62 11 -3 11 C-3.33 9.68 -3.66 8.36 -4 7 C-3.34 7 -2.68 7 -2 7 C-1.855625 6.21625 -1.71125 5.4325 -1.5625 4.625 C-1 2 -1 2 0 0 Z " fill="#35A7DE" transform="translate(45,36)"/>
<path d="M0 0 C0.8125 1.6875 0.8125 1.6875 1 4 C-1.1875 6.4375 -1.1875 6.4375 -4 9 C-6.79064747 12.31033382 -6.79064747 12.31033382 -9 16 C-9.66 16 -10.32 16 -11 16 C-11.33 16.99 -11.66 17.98 -12 19 C-15.71055417 21.01430083 -18.82851735 21.19402245 -23 21 C-22.42636719 20.731875 -21.85273437 20.46375 -21.26171875 20.1875 C-13.16951994 15.93874622 -4.11816698 8.23633396 0 0 Z " fill="#4DA0CA" transform="translate(69,59)"/>
<path d="M0 0 C-1.485 1.485 -1.485 1.485 -3 3 C-2.67 3.66 -2.34 4.32 -2 5 C-2.99 6.485 -2.99 6.485 -4 8 C-3.67 8.33 -3.34 8.66 -3 9 C-2.95919217 10.99958364 -2.95745644 13.00045254 -3 15 C-6.82191781 12.53424658 -6.82191781 12.53424658 -7.6875 9.9375 C-7.790625 9.298125 -7.89375 8.65875 -8 8 C-8.33 7.34 -8.66 6.68 -9 6 C-8.67 5.01 -8.34 4.02 -8 3 C-8.66 2.67 -9.32 2.34 -10 2 C-6.49223216 0.39644899 -3.85645121 -0.22036864 0 0 Z " fill="#4EB2E6" transform="translate(67,35)"/>
<path d="M0 0 C0 3.67512484 -0.85616645 4.44096799 -3.125 7.25 C-3.76050781 8.03761719 -4.39601563 8.82523438 -5.05078125 9.63671875 C-5.69402344 10.41660156 -6.33726563 11.19648437 -7 12 C-7.85658203 13.06154297 -7.85658203 13.06154297 -8.73046875 14.14453125 C-10.10185822 15.80712935 -11.54520245 17.40987245 -13 19 C-13.66 19 -14.32 19 -15 19 C-14.67 17.02 -14.34 15.04 -14 13 C-13.360625 12.87625 -12.72125 12.7525 -12.0625 12.625 C-11.381875 12.41875 -10.70125 12.2125 -10 12 C-9.67 11.34 -9.34 10.68 -9 10 C-6.9375 8.875 -6.9375 8.875 -5 8 C-5.33 6.35 -5.66 4.7 -6 3 C-4.02 2.01 -2.04 1.02 0 0 Z " fill="#499ECB" transform="translate(74,78)"/>
<path d="M0 0 C3.30309104 0.36701012 4.12483621 1.13107802 6.5 3.625 C7.7375 4.800625 7.7375 4.800625 9 6 C11.1477633 6.00478037 11.1477633 6.00478037 13 5 C13.99 4.67 14.98 4.34 16 4 C16.33 6.31 16.66 8.62 17 11 C15.02 11.99 15.02 11.99 13 13 C13.33 11.35 13.66 9.7 14 8 C12.35 8.66 10.7 9.32 9 10 C5.01930733 7.12505529 2.56428003 4.17882671 0 0 Z " fill="#4BA0CA" transform="translate(57,46)"/>
<path d="M0 0 C0.66 0 1.32 0 2 0 C2 0.66 2 1.32 2 2 C2.61875 2.309375 3.2375 2.61875 3.875 2.9375 C5.25 3.625 6.625 4.3125 8 5 C7.67 5.99 7.34 6.98 7 8 C6.01 8 5.02 8 4 8 C3.67 8.99 3.34 9.98 3 11 C1.68 11 0.36 11 -1 11 C-1.33 11.99 -1.66 12.98 -2 14 C-3.32 13.67 -4.64 13.34 -6 13 C-4.8125 11.5 -4.8125 11.5 -3 10 C-0.3125 9.8125 -0.3125 9.8125 2 10 C1.67 9.01 1.34 8.02 1 7 C1.66 7 2.32 7 3 7 C2.505 6.21625 2.01 5.4325 1.5 4.625 C0 2 0 2 0 0 Z " fill="#47A5D2" transform="translate(52,56)"/>
<path d="M0 0 C0 1.98 0 3.96 0 6 C0.99 6 1.98 6 3 6 C3 6.66 3 7.32 3 8 C3.99 8 4.98 8 6 8 C6.66 10.31 7.32 12.62 8 15 C3.11950075 11.0580583 -1.0580583 6.88049925 -5 2 C-2 0 -2 0 0 0 Z " fill="#459AC6" transform="translate(31,84)"/>
<path d="M0 0 C0 0.66 0 1.32 0 2 C-6.625 5 -6.625 5 -10 5 C-10 5.66 -10 6.32 -10 7 C-11.32 7.33 -12.64 7.66 -14 8 C-14.04125 8.598125 -14.0825 9.19625 -14.125 9.8125 C-15 12 -15 12 -18.0625 13.75 C-19.5165625 14.36875 -19.5165625 14.36875 -21 15 C-17.79648224 7.65927589 -11.0322213 3.60575068 -3.8828125 0.62890625 C-2 0 -2 0 0 0 Z " fill="#54A4C8" transform="translate(35,5)"/>
<path d="M0 0 C2.5625 2.25 2.5625 2.25 5 5 C4.8125 7.3125 4.8125 7.3125 4 9 C3.01 9 2.02 9 1 9 C-3 3.74285714 -3 3.74285714 -3 1 C-2.01 0.67 -1.02 0.34 0 0 Z " fill="#5FB3DF" transform="translate(59,51)"/>
<path d="M0 0 C0.99 0.99 1.98 1.98 3 3 C-3.0293589 8.0215698 -3.0293589 8.0215698 -6.8125 7.9375 C-9 7 -9 7 -11 5 C-10.34 4.34 -9.68 3.68 -9 3 C-6.625 3.375 -6.625 3.375 -4 4 C-2.68 4 -1.36 4 0 4 C0 2.68 0 1.36 0 0 Z " fill="#4499C4" transform="translate(54,97)"/>
<path d="M0 0 C0.66 0.33 1.32 0.66 2 1 C1.01 2.485 1.01 2.485 0 4 C4.24733832 4.98142381 8.47324533 5.30920379 12.8125 5.5625 C13.85180664 5.62727539 13.85180664 5.62727539 14.91210938 5.69335938 C16.60788686 5.79861453 18.30392052 5.89972863 20 6 C20 6.99 20 7.98 20 9 C19.67 8.34 19.34 7.68 19 7 C17.81921875 7.02320313 16.6384375 7.04640625 15.421875 7.0703125 C13.86458967 7.08907497 12.30729748 7.10727466 10.75 7.125 C9.97269531 7.14175781 9.19539063 7.15851562 8.39453125 7.17578125 C1.27568856 7.23662606 1.27568856 7.23662606 -2 5 C-1.34 3.35 -0.68 1.7 0 0 Z " fill="#54A1C9" transform="translate(27,26)"/>
<path d="M0 0 C2.475 0.99 2.475 0.99 5 2 C5 2.33 5 2.66 5 3 C3.35 3 1.7 3 0 3 C-0.66 4.65 -1.32 6.3 -2 8 C-2.66 8 -3.32 8 -4 8 C-4 7.34 -4 6.68 -4 6 C-5.32 5.67 -6.64 5.34 -8 5 C-8 3.68 -8 2.36 -8 1 C-7.34 1.99 -6.68 2.98 -6 4 C-5.01 4.33 -4.02 4.66 -3 5 C-3 4.34 -3 3.68 -3 3 C-1.5 1.375 -1.5 1.375 0 0 Z " fill="#469CCC" transform="translate(42,58)"/>
<path d="M0 0 C-0.33 1.65 -0.66 3.3 -1 5 C-1.66 4.34 -2.32 3.68 -3 3 C-3.99 3.66 -4.98 4.32 -6 5 C-8.1875 4.625 -8.1875 4.625 -10 4 C-10 3.01 -10 2.02 -10 1 C-6.78548731 -0.60725635 -3.56387464 -0.05748185 0 0 Z " fill="#4AB3E8" transform="translate(75,48)"/>
<path d="M0 0 C2.49361571 1.20381448 4.68143083 2.45428722 7 4 C7 4.66 7 5.32 7 6 C8.32 6.33 9.64 6.66 11 7 C6.56923077 10.07692308 6.56923077 10.07692308 3.6875 9.6875 C3.130625 9.460625 2.57375 9.23375 2 9 C2.66 8.67 3.32 8.34 4 8 C3.40072174 4.64404172 2.15377564 2.62198774 0 0 Z " fill="#4CA1CF" transform="translate(64,23)"/>
<path d="M0 0 C2.21447392 2.21447392 2.92637276 3.76702078 3.11352539 6.90112305 C3.10828857 7.59761963 3.10305176 8.29411621 3.09765625 9.01171875 C3.09443359 9.76904297 3.09121094 10.52636719 3.08789062 11.30664062 C3.07951172 12.09232422 3.07113281 12.87800781 3.0625 13.6875 C3.05798828 14.48478516 3.05347656 15.28207031 3.04882812 16.10351562 C3.0370585 18.06904257 3.01912348 20.03453085 3 22 C2.67 22 2.34 22 2 22 C1.92652344 20.28490234 1.92652344 20.28490234 1.8515625 18.53515625 C1.77654811 17.04424527 1.70099972 15.55336108 1.625 14.0625 C1.5940625 13.30775391 1.563125 12.55300781 1.53125 11.77539062 C1.4273685 9.84492605 1.22104386 7.92057919 1 6 C0.34 5.67 -0.32 5.34 -1 5 C-0.67 3.35 -0.34 1.7 0 0 Z " fill="#4C9FCD" transform="translate(85,27)"/>
<path d="M0 0 C1.32 0 2.64 0 4 0 C3.67 1.65 3.34 3.3 3 5 C2.34 5 1.68 5 1 5 C1 5.66 1 6.32 1 7 C-0.32 6.67 -1.64 6.34 -3 6 C-3 5.34 -3 4.68 -3 4 C-1.68 3.67 -0.36 3.34 1 3 C0.67 2.01 0.34 1.02 0 0 Z " fill="#37A2D9" transform="translate(38,56)"/>
<path d="M0 0 C4.24822374 0.47202486 6.19989709 2.96655518 9 6 C8.67 6.99 8.34 7.98 8 9 C5.06799526 6.14723863 2.35684596 3.34920216 0 0 Z " fill="#3D9CCA" transform="translate(57,46)"/>
<path d="M0 0 C1.19109375 0.14695312 1.19109375 0.14695312 2.40625 0.296875 C3.59734375 0.42835937 3.59734375 0.42835937 4.8125 0.5625 C6.90625 1.046875 6.90625 1.046875 8.90625 3.046875 C4.61625 2.716875 0.32625 2.386875 -4.09375 2.046875 C-2.09375 0.046875 -2.09375 0.046875 0 0 Z " fill="#4D9AC3" transform="translate(56.09375,29.953125)"/>
<path d="M0 0 C3.31562557 0.55260426 6.15062207 1.16825705 9 3 C9.33 3.99 9.66 4.98 10 6 C9.29875 5.71125 8.5975 5.4225 7.875 5.125 C4.94547497 3.97866412 1.99078347 2.97374346 -1 2 C-0.67 1.34 -0.34 0.68 0 0 Z " fill="#4B9FC9" transform="translate(54,17)"/>
<path d="M0 0 C1.32 0 2.64 0 4 0 C3.67 1.32 3.34 2.64 3 4 C1.35 4.33 -0.3 4.66 -2 5 C-1.34 3.35 -0.68 1.7 0 0 Z " fill="#39A3DF" transform="translate(42,61)"/>
<path d="M0 0 C2.375 0.25 2.375 0.25 5 1 C6.1875 2.9375 6.1875 2.9375 7 5 C7.66 5.66 8.32 6.32 9 7 C6.61435923 6.42415568 4.33317216 5.77772405 2 5 C0.8125 2.4375 0.8125 2.4375 0 0 Z " fill="#68BDE3" transform="translate(41,53)"/>
<path d="M0 0 C0.66 0 1.32 0 2 0 C1.67 0.99 1.34 1.98 1 3 C-0.32 3 -1.64 3 -3 3 C-3.33 3.99 -3.66 4.98 -4 6 C-5.32 5.67 -6.64 5.34 -8 5 C-6.8125 3.5 -6.8125 3.5 -5 2 C-2.3125 1.8125 -2.3125 1.8125 0 2 C0 1.34 0 0.68 0 0 Z " fill="#479AC3" transform="translate(54,64)"/>
<path d="M0 0 C0.99 0 1.98 0 3 0 C3 0.66 3 1.32 3 2 C6.465 1.505 6.465 1.505 10 1 C7.33440687 2.77706209 4.9719385 3.87548273 2 5 C2 4.01 2 3.02 2 2 C1.34 2 0.68 2 0 2 C0 1.34 0 0.68 0 0 Z " fill="#4CA2CA" transform="translate(30,18)"/>
<path d="M0 0 C1.485 0.99 1.485 0.99 3 2 C3 2.66 3 3.32 3 4 C3.99 4.33 4.98 4.66 6 5 C5.01 6.32 4.02 7.64 3 9 C2.01 6.03 1.02 3.06 0 0 Z " fill="#489FCA" transform="translate(8,53)"/>
<path d="M0 0 C0.556875 0.144375 1.11375 0.28875 1.6875 0.4375 C4.11384195 1.02769128 6.54906345 1.523429 9 2 C9 2.66 9 3.32 9 4 C8.34 4 7.68 4 7 4 C6.67 4.66 6.34 5.32 6 6 C6 5.34 6 4.68 6 4 C5.195625 3.71125 4.39125 3.4225 3.5625 3.125 C1 2 1 2 0 0 Z " fill="#6EC4EC" transform="translate(33,48)"/>
<path d="M0 0 C2 1 2 1 3.0625 3.875 C3.371875 4.90625 3.68125 5.9375 4 7 C4.33 7.99 4.66 8.98 5 10 C4.01 10.33 3.02 10.66 2 11 C0.80712589 7.12315913 0 4.08378077 0 0 Z " fill="#4F9EC9" transform="translate(22,51)"/>
<path d="M0 0 C1.32 1.65 2.64 3.3 4 5 C1.69 5.66 -0.62 6.32 -3 7 C-3 6.01 -3 5.02 -3 4 C-2.01 4 -1.02 4 0 4 C0 2.68 0 1.36 0 0 Z " fill="#489DC9" transform="translate(29,63)"/>
<path d="M0 0 C2.4375 0.8125 2.4375 0.8125 5 2 C5.33 2.99 5.66 3.98 6 5 C4.68 5.33 3.36 5.66 2 6 C1.34 4.02 0.68 2.04 0 0 Z " fill="#4197C7" transform="translate(58,54)"/>
<path d="M0 0 C0.66 0 1.32 0 2 0 C2 0.66 2 1.32 2 2 C3.65 2.33 5.3 2.66 7 3 C7.33 4.32 7.66 5.64 8 7 C6.68 6.34 5.36 5.68 4 5 C4 4.34 4 3.68 4 3 C3.01 3 2.02 3 1 3 C0.67 2.01 0.34 1.02 0 0 Z " fill="#4E9AC1" transform="translate(25,53)"/>
<path d="M0 0 C2.31 1.98 4.62 3.96 7 6 C6.67 6.66 6.34 7.32 6 8 C5.401875 7.360625 4.80375 6.72125 4.1875 6.0625 C2.09189663 3.79689611 2.09189663 3.79689611 -1 3 C-0.67 2.01 -0.34 1.02 0 0 Z " fill="#66B5D7" transform="translate(52,43)"/>
<path d="M0 0 C2.475 0.495 2.475 0.495 5 1 C5 1.66 5 2.32 5 3 C4.01 3 3.02 3 2 3 C2 3.66 2 4.32 2 5 C1.34 5 0.68 5 0 5 C0 3.35 0 1.7 0 0 Z " fill="#429FD3" transform="translate(76,17)"/>
</svg>
